
<svg width="248px" height="247px" viewBox="0 0 248 247" version="1.1" xmlns="http://www.w3.org/2000/svg" xmlns:xlink="http://www.w3.org/1999/xlink">
    <g id="Page-1" stroke="none" stroke-width="1" fill="none" fill-rule="evenodd">
        <g id="atolye15_logo_icon" transform="translate(-516.000000, -277.000000)" fill="#FE2D5B">
            <g transform="translate(516.000000, 277.000000)">
                <path d="M61.814,47.0203 C62.281,47.4913 62.899,47.7313 63.523,47.7313 C64.044,47.7313 64.573,47.5643 65.014,47.2183 C70.974,42.5633 77.464,38.6343 84.35,35.5083 L84.35,123.7233 C84.35,123.9453 84.374,124.1613 84.429,124.3633 C84.695,140.6243 95.016,155.2263 110.278,160.8433 C110.547,160.9423 110.83,160.9913 111.114,160.9913 C111.6,160.9913 112.083,160.8433 112.494,160.5553 C113.145,160.1033 113.533,159.3593 113.533,158.5733 L113.533,125.9133 C113.533,125.7783 113.517,125.6393 113.496,125.5083 C113.445,125.1873 113.402,124.8773 113.374,124.5863 C113.475,124.3173 113.533,124.0233 113.533,123.7233 L113.533,121.5403 L113.533,88.8803 L113.533,25.3683 L113.533,14.6153 L113.533,2.5313 C113.533,1.8473 113.24,1.1933 112.731,0.7313 C112.287,0.3303 111.705,0.1143 111.114,0.1143 C111.028,0.1143 110.943,0.1143 110.86,0.1253 C86.994,2.6353 64.525,12.0333 45.88,27.2963 C45.354,27.7293 45.036,28.3653 45.002,29.0483 C44.966,29.7293 45.22,30.3953 45.708,30.8743 L61.814,47.0203 Z" id="Fill-15"></path>
                <path d="M219.4087,44.8973 C218.9777,44.3663 218.3417,44.0453 217.6577,44.0083 L217.5357,44.0083 C216.8937,44.0083 216.2807,44.2603 215.8257,44.7173 L199.7097,60.8723 C198.8467,61.7333 198.7647,63.1033 199.5127,64.0603 C212.7387,81.0793 219.7337,101.4733 219.7337,123.0513 C219.7337,176.0363 176.7317,219.1453 123.8707,219.1453 C71.0097,219.1453 28.0057,176.0363 28.0057,123.0513 C28.0057,101.4733 34.9987,81.0733 48.2227,64.0603 C48.9727,63.1003 48.8867,61.7293 48.0247,60.8693 L31.9097,44.7133 C31.4567,44.2583 30.8427,44.0063 30.2007,44.0063 L30.0777,44.0063 C29.3927,44.0433 28.7607,44.3633 28.3257,44.8943 C10.4047,66.8733 0.5357,94.6323 0.5357,123.0513 C0.5357,191.2123 55.8657,246.6653 123.8707,246.6653 C191.8717,246.6653 247.2017,191.2123 247.2017,123.0513 C247.2017,94.6263 237.3367,66.8733 219.4087,44.8973" id="Fill-17"></path>
                <path d="M123.8706,178.786 C93.2106,178.786 68.2706,153.78 68.2706,123.052 C68.2706,112.278 71.3506,101.816 77.1916,92.794 C77.8096,91.84 77.6766,90.584 76.8676,89.78 L60.9226,73.796 C60.4666,73.337 59.8516,73.082 59.2106,73.082 C59.1496,73.082 59.0906,73.085 59.0296,73.091 C58.3286,73.142 57.6836,73.499 57.2616,74.069 C46.7806,88.355 41.2446,105.296 41.2446,123.052 C41.2446,168.718 78.3106,205.864 123.8706,205.864 C169.4286,205.864 206.4946,168.718 206.4946,123.052 C206.4946,92.041 189.5716,64.078 162.2266,49.708 L162.2266,34.984 C169.5456,38.19 176.4326,42.297 182.7266,47.213 C183.1686,47.557 183.6966,47.728 184.2216,47.728 C184.8426,47.728 185.4606,47.485 185.9306,47.015 L202.0336,30.875 C202.5146,30.395 202.7676,29.729 202.7326,29.049 C202.7006,28.365 202.3796,27.729 201.8536,27.297 C182.8896,11.766 160.0066,2.327 135.6876,0.012 C135.6166,0.002 135.5356,0 135.4596,0 C134.8596,0 134.2846,0.218 133.8346,0.627 C133.3266,1.086 133.0426,1.733 133.0426,2.417 L133.0426,14.615 L133.0426,25.23 L133.0426,43.509 L133.0426,62.89 L133.0426,66.063 C133.0426,67.213 133.8526,68.205 134.9796,68.433 C160.7566,73.671 179.4706,96.642 179.4706,123.052 C179.4706,153.78 154.5306,178.786 123.8706,178.786" id="Fill-19"></path>
            </g>
        </g>
    </g>
</svg>